<?xml version="1.0" standalone="no"?>
<!DOCTYPE svg PUBLIC "-//W3C//DTD SVG 20010904//EN"
 "http://www.w3.org/TR/2001/REC-SVG-20010904/DTD/svg10.dtd">
<svg version="1.0" xmlns="http://www.w3.org/2000/svg"
 width="115.000000pt" height="35.000000pt" viewBox="0 0 162.000000 50.000000"
 preserveAspectRatio="xMidYMid meet">

<g transform="translate(0.000000,50.000000) scale(0.100000,-0.100000)"
fill="#fff" stroke="none">
<path d="M1003 493 c-9 -3 -13 -27 -13 -68 l0 -63 -47 14 c-63 19 -123 18
-153 -3 -15 -11 -44 -18 -75 -19 -30 0 -61 -7 -78 -18 -19 -13 -37 -17 -58
-12 -19 4 -42 0 -61 -10 -41 -21 -48 -9 -48 88 0 42 -4 79 -9 82 -5 4 -30 -3
-55 -14 -48 -20 -57 -40 -31 -66 8 -9 15 -29 15 -45 0 -29 -1 -30 -22 -15 -32
23 -104 20 -139 -4 l-28 -21 -21 21 c-19 19 -42 25 -87 21 -12 -1 -23 5 -25
13 -3 13 -7 13 -37 0 -19 -8 -31 -17 -28 -20 3 -3 15 -1 26 6 17 8 22 8 27 -3
4 -11 17 -13 48 -10 37 5 46 2 60 -18 27 -40 21 -86 -18 -125 -19 -19 -43 -34
-55 -34 -19 0 -21 -5 -21 -75 0 -73 -1 -75 -25 -75 -25 0 -25 1 -26 93 -1 50
-5 121 -9 157 -6 54 -7 41 -8 -75 -2 -179 -1 -185 49 -185 l39 0 0 70 c0 68 1
71 27 81 16 6 37 19 49 30 21 20 21 20 38 -5 33 -51 117 -41 164 19 l20 25 6
-23 c3 -12 6 -39 6 -59 l0 -38 45 0 45 0 0 41 0 40 65 -46 65 -47 0 31 c0 31
0 31 48 26 42 -4 43 -4 10 4 -54 11 -68 27 -68 76 0 71 58 124 122 110 39 -9
35 -28 -18 -91 -49 -57 -43 -70 17 -38 17 8 33 13 36 10 10 -10 -8 -44 -30
-53 -18 -9 -14 -10 28 -11 28 0 81 -3 118 -7 63 -7 70 -6 93 16 20 19 24 20
24 6 0 -12 9 -17 29 -17 54 0 61 8 61 65 0 86 19 112 39 54 6 -18 11 -52 11
-75 l0 -44 39 0 c22 0 42 4 46 9 3 6 17 4 33 -5 39 -20 64 -17 106 11 20 14
39 25 41 25 3 0 5 -33 5 -72 0 -108 5 -118 51 -118 l39 0 0 70 c0 70 0 70 33
84 66 27 98 108 67 166 -12 22 -70 41 -100 33 -14 -4 -20 0 -20 11 0 15 -3 15
-37 0 -24 -11 -60 -16 -99 -15 -54 2 -64 -1 -90 -26 l-30 -28 -28 33 c-23 27
-35 32 -71 32 -48 0 -55 10 -55 88 0 39 -2 42 -27 41 -16 0 -34 -3 -40 -6z
m51 -34 c3 -17 6 -48 6 -68 l0 -37 52 1 c48 0 54 -3 75 -34 18 -26 23 -48 23
-92 0 -56 -1 -59 -25 -59 -23 0 -25 4 -26 43 0 62 -20 112 -44 112 -27 0 -45
-40 -45 -103 0 -52 -1 -53 -27 -50 l-28 3 -7 150 c-3 82 -4 153 -2 157 13 21
42 6 48 -23z m-600 -81 c3 -50 8 -94 11 -96 3 -3 22 3 43 12 22 10 50 16 62
14 22 -3 20 -5 -18 -31 -23 -15 -42 -31 -42 -36 0 -4 18 -21 41 -36 40 -28 66
-62 55 -72 -3 -3 -34 16 -68 41 l-63 47 -3 -50 c-3 -47 -5 -51 -28 -51 -13 0
-24 3 -25 8 0 4 -4 72 -8 151 -6 102 -13 146 -22 152 -15 9 -13 11 16 27 38
21 42 14 49 -80z m499 -19 c38 -10 42 -15 29 -36 -6 -10 -17 -10 -42 -3 -19 6
-46 10 -60 9 -14 -1 5 -8 43 -17 57 -14 67 -19 67 -38 l0 -22 -37 19 c-21 10
-46 19 -56 19 -27 0 -59 19 -51 32 4 6 1 9 -7 6 -32 -11 -12 -33 41 -46 30 -8
63 -21 73 -29 20 -18 23 -63 5 -81 -15 -15 -79 -15 -128 -1 -29 9 -36 15 -33
30 5 19 14 19 76 2 24 -6 57 6 57 22 0 15 -22 25 -56 25 -14 0 -38 7 -54 15
-24 13 -30 22 -30 50 0 63 45 76 163 44z m563 -11 c35 3 44 0 58 -19 27 -40
21 -86 -18 -125 -19 -19 -43 -34 -55 -34 -19 0 -21 -5 -21 -75 0 -73 -1 -75
-25 -75 -25 0 -25 0 -26 98 -2 157 -6 203 -18 215 -8 8 -4 14 17 23 21 9 29 9
37 0 6 -7 27 -11 51 -8z m-1162 -20 c43 -61 -6 -157 -80 -158 -71 0 -92 96
-33 151 39 37 90 40 113 7z m1021 11 c7 -11 -22 -49 -38 -49 -5 0 -7 9 -4 20
6 23 3 24 -24 10 -37 -20 -17 -70 29 -70 17 0 27 8 35 30 15 39 27 38 27 -1 0
-59 -43 -108 -94 -109 -44 0 -66 25 -66 78 0 36 5 49 31 73 32 30 91 40 104
18z m-783 -94 c-2 -25 -7 -45 -11 -45 -9 1 -55 40 -50 43 2 2 17 13 33 25 16
12 29 22 30 22 1 0 0 -20 -2 -45z m262 -4 c26 -5 50 -11 53 -15 11 -11 -40 -6
-97 9 -49 13 -56 13 -72 -2 -29 -26 -29 -10 -1 25 l25 33 22 -20 c12 -12 43
-25 70 -30z"/>
<path d="M1496 314 c-19 -19 -20 -36 -4 -52 21 -21 57 -14 70 13 13 28 4 45
-14 27 -18 -18 -31 -14 -25 8 6 24 -6 26 -27 4z"/>
<path d="M278 319 c-10 -5 -18 -18 -18 -27 0 -46 63 -58 82 -17 13 28 4 45
-14 27 -18 -18 -31 -14 -25 8 6 22 0 24 -25 9z"/>
<path d="M86 314 c-19 -19 -20 -36 -4 -52 21 -21 57 -14 70 13 13 28 4 45 -14
27 -18 -18 -31 -14 -25 8 6 24 -6 26 -27 4z"/>
<path d="M652 298 c-14 -14 -16 -78 -3 -78 11 0 71 70 71 82 0 13 -55 9 -68
-4z m38 -17 c-12 -23 -29 -35 -36 -28 -10 9 16 47 32 47 11 0 12 -4 4 -19z"/>
</g>
</svg>
